<?xml version="1.0" encoding="utf-8" standalone="no"?>
<!DOCTYPE svg PUBLIC "-//W3C//DTD SVG 1.1//EN"
  "http://www.w3.org/Graphics/SVG/1.1/DTD/svg11.dtd">
<svg xmlns:xlink="http://www.w3.org/1999/xlink" width="648pt" height="417.6pt" viewBox="0 0 648 417.6" xmlns="http://www.w3.org/2000/svg" version="1.1">
 <metadata>
  <rdf:RDF xmlns:dc="http://purl.org/dc/elements/1.1/" xmlns:cc="http://creativecommons.org/ns#" xmlns:rdf="http://www.w3.org/1999/02/22-rdf-syntax-ns#">
   <cc:Work>
    <dc:type rdf:resource="http://purl.org/dc/dcmitype/StillImage"/>
    <dc:date>2026-09-30T07:12:28.834241</dc:date>
    <dc:format>image/svg+xml</dc:format>
    <dc:creator>
     <cc:Agent>
      <dc:title>Matplotlib v3.10.8, https://matplotlib.org/</dc:title>
     </cc:Agent>
    </dc:creator>
   </cc:Work>
  </rdf:RDF>
 </metadata>
 <defs>
  <style type="text/css">*{stroke-linejoin: round; stroke-linecap: butt}</style>
 </defs>
 <g id="figure_1">
  <g id="patch_1">
   <path d="M 0 417.6 
L 648 417.6 
L 648 0 
L 0 0 
z
" style="fill: #fffefa"/>
  </g>
  <g id="axes_1">
   <g id="patch_2">
    <path d="M 82.289928 248.977412 
L 644.99976 248.977412 
L 644.99976 23.755553 
L 82.289928 23.755553 
z
" style="fill: #fffefa"/>
   </g>
   <g id="matplotlib.axis_1">
    <g id="xtick_1">
     <g id="line2d_1">
      <defs>
       <path id="m1a134b67b1" d="M 0 0 
L 0 3.5 
" style="stroke: #52685e; stroke-width: 0.8"/>
      </defs>
      <g>
       <use xlink:href="#m1a134b67b1" x="107.867647" y="248.977412" style="fill: #52685e; stroke: #52685e; stroke-width: 0.8"/>
      </g>
     </g>
     <g id="text_1">
      <text style="font-size: 9px; font-family: 'Noto Sans CJK JP'; text-anchor: middle; fill: #52685e" x="107.867647" y="263.14085" transform="rotate(-0 107.867647 263.14085)">2024-08-27</text>
     </g>
    </g>
    <g id="xtick_2">
     <g id="line2d_2">
      <g>
       <use xlink:href="#m1a134b67b1" x="363.644844" y="248.977412" style="fill: #52685e; stroke: #52685e; stroke-width: 0.8"/>
      </g>
     </g>
     <g id="text_2">
      <text style="font-size: 9px; font-family: 'Noto Sans CJK JP'; text-anchor: middle; fill: #52685e" x="363.644844" y="263.14085" transform="rotate(-0 363.644844 263.14085)">2025-08-29</text>
     </g>
    </g>
    <g id="xtick_3">
     <g id="line2d_3">
      <g>
       <use xlink:href="#m1a134b67b1" x="619.42204" y="248.977412" style="fill: #52685e; stroke: #52685e; stroke-width: 0.8"/>
      </g>
     </g>
     <g id="text_3">
      <text style="font-size: 9px; font-family: 'Noto Sans CJK JP'; text-anchor: middle; fill: #52685e" x="619.42204" y="263.14085" transform="rotate(-0 619.42204 263.14085)">2026-09-01</text>
     </g>
    </g>
   </g>
   <g id="matplotlib.axis_2">
    <g id="ytick_1">
     <g id="line2d_4">
      <path d="M 82.289928 232.646567 
L 644.99976 232.646567 
" clip-path="url(#pcd393561ea)" style="fill: none; stroke: #e8ebe1; stroke-width: 0.6; stroke-linecap: square"/>
     </g>
     <g id="line2d_5">
      <defs>
       <path id="me0caf6a917" d="M 0 0 
L -3.5 0 
" style="stroke: #52685e; stroke-width: 0.8"/>
      </defs>
      <g>
       <use xlink:href="#me0caf6a917" x="82.289928" y="232.646567" style="fill: #52685e; stroke: #52685e; stroke-width: 0.8"/>
      </g>
     </g>
     <g id="text_4">
      <text style="font-size: 9px; font-family: 'Noto Sans CJK JP'; text-anchor: end; fill: #52685e" x="75.289928" y="236.228285" transform="rotate(-0 75.289928 236.228285)">100</text>
     </g>
    </g>
    <g id="ytick_2">
     <g id="line2d_6">
      <path d="M 82.289928 110.239956 
L 644.99976 110.239956 
" clip-path="url(#pcd393561ea)" style="fill: none; stroke: #e8ebe1; stroke-width: 0.6; stroke-linecap: square"/>
     </g>
     <g id="line2d_7">
      <g>
       <use xlink:href="#me0caf6a917" x="82.289928" y="110.239956" style="fill: #52685e; stroke: #52685e; stroke-width: 0.8"/>
      </g>
     </g>
     <g id="text_5">
      <text style="font-size: 9px; font-family: 'Noto Sans CJK JP'; text-anchor: end; fill: #52685e" x="75.289928" y="113.821674" transform="rotate(-0 75.289928 113.821674)">1000</text>
     </g>
    </g>
    <g id="ytick_3">
     <g id="line2d_8">
      <defs>
       <path id="m4b8d69aed3" d="M 0 0 
L -2 0 
" style="stroke: #000000; stroke-width: 0.6"/>
      </defs>
      <g>
       <use xlink:href="#m4b8d69aed3" x="82.289928" y="244.508993" style="stroke: #000000; stroke-width: 0.6"/>
      </g>
     </g>
    </g>
    <g id="ytick_4">
     <g id="line2d_9">
      <g>
       <use xlink:href="#m4b8d69aed3" x="82.289928" y="238.247586" style="stroke: #000000; stroke-width: 0.6"/>
      </g>
     </g>
    </g>
    <g id="ytick_5">
     <g id="line2d_10">
      <g>
       <use xlink:href="#m4b8d69aed3" x="82.289928" y="195.798505" style="stroke: #000000; stroke-width: 0.6"/>
      </g>
     </g>
    </g>
    <g id="ytick_6">
     <g id="line2d_11">
      <g>
       <use xlink:href="#m4b8d69aed3" x="82.289928" y="174.243771" style="stroke: #000000; stroke-width: 0.6"/>
      </g>
     </g>
    </g>
    <g id="ytick_7">
     <g id="line2d_12">
      <g>
       <use xlink:href="#m4b8d69aed3" x="82.289928" y="158.950443" style="stroke: #000000; stroke-width: 0.6"/>
      </g>
     </g>
    </g>
    <g id="ytick_8">
     <g id="line2d_13">
      <g>
       <use xlink:href="#m4b8d69aed3" x="82.289928" y="147.088017" style="stroke: #000000; stroke-width: 0.6"/>
      </g>
     </g>
    </g>
    <g id="ytick_9">
     <g id="line2d_14">
      <g>
       <use xlink:href="#m4b8d69aed3" x="82.289928" y="137.395709" style="stroke: #000000; stroke-width: 0.6"/>
      </g>
     </g>
    </g>
    <g id="ytick_10">
     <g id="line2d_15">
      <g>
       <use xlink:href="#m4b8d69aed3" x="82.289928" y="129.20098" style="stroke: #000000; stroke-width: 0.6"/>
      </g>
     </g>
    </g>
    <g id="ytick_11">
     <g id="line2d_16">
      <g>
       <use xlink:href="#m4b8d69aed3" x="82.289928" y="122.102382" style="stroke: #000000; stroke-width: 0.6"/>
      </g>
     </g>
    </g>
    <g id="ytick_12">
     <g id="line2d_17">
      <g>
       <use xlink:href="#m4b8d69aed3" x="82.289928" y="115.840975" style="stroke: #000000; stroke-width: 0.6"/>
      </g>
     </g>
    </g>
    <g id="ytick_13">
     <g id="line2d_18">
      <g>
       <use xlink:href="#m4b8d69aed3" x="82.289928" y="73.391894" style="stroke: #000000; stroke-width: 0.6"/>
      </g>
     </g>
    </g>
    <g id="ytick_14">
     <g id="line2d_19">
      <g>
       <use xlink:href="#m4b8d69aed3" x="82.289928" y="51.83716" style="stroke: #000000; stroke-width: 0.6"/>
      </g>
     </g>
    </g>
    <g id="ytick_15">
     <g id="line2d_20">
      <g>
       <use xlink:href="#m4b8d69aed3" x="82.289928" y="36.543832" style="stroke: #000000; stroke-width: 0.6"/>
      </g>
     </g>
    </g>
    <g id="ytick_16">
     <g id="line2d_21">
      <g>
       <use xlink:href="#m4b8d69aed3" x="82.289928" y="24.681406" style="stroke: #000000; stroke-width: 0.6"/>
      </g>
     </g>
    </g>
    <g id="text_6">
     <text style="font-size: 10px; font-family: 'Noto Sans CJK JP'; text-anchor: middle" x="49.019302" y="136.366482" transform="rotate(-90 49.019302 136.366482)">시작 100 · 로그 눈금</text>
    </g>
   </g>
   <g id="line2d_22">
    <path d="M 107.867647 232.646567 
L 129.182414 231.63372 
L 150.49718 229.587496 
L 171.811946 230.242308 
L 193.126713 228.044337 
L 214.441479 230.779367 
L 235.756245 231.520287 
L 257.071012 236.759351 
L 278.385778 238.459024 
L 299.700545 232.243848 
L 321.015311 226.288605 
L 342.330077 224.2796 
L 363.644844 220.449687 
L 384.95961 211.685971 
L 406.274377 203.640146 
L 427.589143 202.335082 
L 448.903909 199.015688 
L 470.218676 193.180665 
L 491.533442 196.289923 
L 512.848208 197.704948 
L 534.162975 185.885539 
L 555.477741 172.454825 
L 576.792508 175.651142 
L 598.107274 176.563521 
L 619.42204 174.644981 
" clip-path="url(#pcd393561ea)" style="fill: none; stroke: #83917b; stroke-width: 1.8; stroke-linecap: square"/>
   </g>
   <g id="line2d_23">
    <path d="M 107.867647 232.646567 
L 129.182414 233.59478 
L 150.49718 229.54828 
L 171.811946 230.683218 
L 193.126713 230.669101 
L 214.441479 234.329553 
L 235.756245 233.047342 
L 257.071012 238.740055 
L 278.385778 238.475845 
L 299.700545 230.537166 
L 321.015311 226.45438 
L 342.330077 223.771959 
L 363.644844 221.951157 
L 384.95961 203.839334 
L 406.274377 187.67659 
L 427.589143 185.414883 
L 448.903909 174.06781 
L 470.218676 155.510521 
L 491.533442 160.223761 
L 512.848208 161.885139 
L 534.162975 148.557191 
L 555.477741 125.453261 
L 576.792508 129.667674 
L 598.107274 131.577287 
L 619.42204 127.321451 
" clip-path="url(#pcd393561ea)" style="fill: none; stroke: #245d53; stroke-width: 1.8; stroke-linecap: square"/>
   </g>
   <g id="line2d_24">
    <path d="M 107.867647 232.646567 
L 129.182414 233.59478 
L 150.49718 229.54828 
L 171.811946 230.683218 
L 193.126713 230.669101 
L 214.441479 234.329553 
L 235.756245 233.047342 
L 257.071012 238.740055 
L 278.385778 238.475845 
L 299.700545 230.537166 
L 321.015311 226.45438 
L 342.330077 223.771959 
L 363.644844 221.951157 
L 384.95961 203.839334 
L 406.274377 187.67659 
L 427.589143 185.414883 
L 448.903909 174.06781 
L 470.218676 155.510521 
L 491.533442 160.223761 
L 512.848208 161.885139 
L 534.162975 148.557191 
L 555.477741 125.453261 
L 576.792508 129.667674 
L 598.107274 131.577287 
L 619.42204 127.321451 
" clip-path="url(#pcd393561ea)" style="fill: none; stroke: #af5b35; stroke-width: 1.8; stroke-linecap: square"/>
   </g>
   <g id="line2d_25">
    <path d="M 107.867647 232.646567 
L 129.182414 226.487876 
L 150.49718 219.471845 
L 171.811946 218.711763 
L 193.126713 210.453874 
L 214.441479 210.505541 
L 235.756245 207.815512 
L 257.071012 211.717848 
L 278.385778 210.306665 
L 299.700545 198.843993 
L 321.015311 185.729051 
L 342.330077 177.82642 
L 363.644844 171.81895 
L 384.95961 153.707128 
L 406.274377 137.544383 
L 427.589143 129.374828 
L 448.903909 118.027755 
L 470.218676 99.470466 
L 491.533442 98.55306 
L 512.848208 99.610795 
L 534.162975 78.985674 
L 555.477741 43.143199 
L 576.792508 43.397236 
L 598.107274 40.268699 
L 619.42204 33.99291 
" clip-path="url(#pcd393561ea)" style="fill: none; stroke-dasharray: 6.66,2.88; stroke-dashoffset: 0; stroke: #8d7caa; stroke-width: 1.8"/>
   </g>
   <g id="patch_3">
    <path d="M 82.289928 248.977412 
L 82.289928 23.755552 
" style="fill: none; stroke: #ccd3c6; stroke-width: 0.8; stroke-linejoin: miter; stroke-linecap: square"/>
   </g>
   <g id="patch_4">
    <path d="M 82.289928 248.977412 
L 644.99976 248.977412 
" style="fill: none; stroke: #ccd3c6; stroke-width: 0.8; stroke-linejoin: miter; stroke-linecap: square"/>
   </g>
   <g id="text_7">
    <text style="font-size: 11px; font-family: 'Noto Sans CJK JP'; text-anchor: start" x="82.289928" y="11.755553" transform="rotate(-0 82.289928 11.755553)">US · 4개 현재 기업 · 24개 21일 구간 · 비용 전 탐색 결과</text>
   </g>
   <g id="legend_1">
    <g id="line2d_26">
     <path d="M 90.389927 35.86899 
L 99.389927 35.86899 
L 108.389927 35.86899 
" style="fill: none; stroke: #83917b; stroke-width: 1.8; stroke-linecap: square"/>
    </g>
    <g id="text_8">
     <text style="font-size: 9px; font-family: 'Noto Sans CJK JP'; text-anchor: start" x="115.589928" y="39.01899" transform="rotate(-0 115.589928 39.01899)">동일가중 기준선</text>
    </g>
    <g id="line2d_27">
     <path d="M 90.389927 49.59399 
L 99.389927 49.59399 
L 108.389927 49.59399 
" style="fill: none; stroke: #245d53; stroke-width: 1.8; stroke-linecap: square"/>
    </g>
    <g id="text_9">
     <text style="font-size: 9px; font-family: 'Noto Sans CJK JP'; text-anchor: start" x="115.589928" y="52.74399" transform="rotate(-0 115.589928 52.74399)">재무 조건 3개</text>
    </g>
    <g id="line2d_28">
     <path d="M 193.56649 35.86899 
L 202.56649 35.86899 
L 211.56649 35.86899 
" style="fill: none; stroke: #af5b35; stroke-width: 1.8; stroke-linecap: square"/>
    </g>
    <g id="text_10">
     <text style="font-size: 9px; font-family: 'Noto Sans CJK JP'; text-anchor: start" x="218.76649" y="39.01899" transform="rotate(-0 218.76649 39.01899)">매출 성장 조건 제거</text>
    </g>
    <g id="line2d_29">
     <path d="M 193.56649 49.59399 
L 202.56649 49.59399 
L 211.56649 49.59399 
" style="fill: none; stroke-dasharray: 6.66,2.88; stroke-dashoffset: 0; stroke: #8d7caa; stroke-width: 1.8"/>
    </g>
    <g id="text_11">
     <text style="font-size: 9px; font-family: 'Noto Sans CJK JP'; text-anchor: start" x="218.76649" y="52.74399" transform="rotate(-0 218.76649 52.74399)">완전예지 1종목 상한</text>
    </g>
   </g>
  </g>
  <g id="axes_2">
   <g id="patch_5">
    <path d="M 82.289928 383.813822 
L 644.99976 383.813822 
L 644.99976 271.202892 
L 82.289928 271.202892 
z
" style="fill: #fffefa"/>
   </g>
   <g id="matplotlib.axis_3">
    <g id="xtick_4">
     <g id="line2d_30">
      <g>
       <use xlink:href="#m1a134b67b1" x="107.867647" y="383.813822" style="fill: #52685e; stroke: #52685e; stroke-width: 0.8"/>
      </g>
     </g>
     <g id="text_12">
      <text style="font-size: 9px; font-family: 'Noto Sans CJK JP'; text-anchor: middle; fill: #52685e" x="107.867647" y="397.97726" transform="rotate(-0 107.867647 397.97726)">0</text>
     </g>
    </g>
    <g id="xtick_5">
     <g id="line2d_31">
      <g>
       <use xlink:href="#m1a134b67b1" x="219.166362" y="383.813822" style="fill: #52685e; stroke: #52685e; stroke-width: 0.8"/>
      </g>
     </g>
     <g id="text_13">
      <text style="font-size: 9px; font-family: 'Noto Sans CJK JP'; text-anchor: middle; fill: #52685e" x="219.166362" y="397.97726" transform="rotate(-0 219.166362 397.97726)">2</text>
     </g>
    </g>
    <g id="xtick_6">
     <g id="line2d_32">
      <g>
       <use xlink:href="#m1a134b67b1" x="330.465078" y="383.813822" style="fill: #52685e; stroke: #52685e; stroke-width: 0.8"/>
      </g>
     </g>
     <g id="text_14">
      <text style="font-size: 9px; font-family: 'Noto Sans CJK JP'; text-anchor: middle; fill: #52685e" x="330.465078" y="397.97726" transform="rotate(-0 330.465078 397.97726)">4</text>
     </g>
    </g>
    <g id="xtick_7">
     <g id="line2d_33">
      <g>
       <use xlink:href="#m1a134b67b1" x="441.763793" y="383.813822" style="fill: #52685e; stroke: #52685e; stroke-width: 0.8"/>
      </g>
     </g>
     <g id="text_15">
      <text style="font-size: 9px; font-family: 'Noto Sans CJK JP'; text-anchor: middle; fill: #52685e" x="441.763793" y="397.97726" transform="rotate(-0 441.763793 397.97726)">6</text>
     </g>
    </g>
    <g id="xtick_8">
     <g id="line2d_34">
      <g>
       <use xlink:href="#m1a134b67b1" x="553.062508" y="383.813822" style="fill: #52685e; stroke: #52685e; stroke-width: 0.8"/>
      </g>
     </g>
     <g id="text_16">
      <text style="font-size: 9px; font-family: 'Noto Sans CJK JP'; text-anchor: middle; fill: #52685e" x="553.062508" y="397.97726" transform="rotate(-0 553.062508 397.97726)">8</text>
     </g>
    </g>
    <g id="text_17">
     <text style="font-size: 10px; font-family: 'Noto Sans CJK JP'; text-anchor: middle" x="363.644844" y="412.309135" transform="rotate(-0 363.644844 412.309135)">21일 평균 기준선 차이 (%p) · 탐색용 95% 블록 부트스트랩 구간</text>
    </g>
   </g>
   <g id="matplotlib.axis_4">
    <g id="ytick_17">
     <g id="line2d_35">
      <path d="M 82.289928 350.968968 
L 644.99976 350.968968 
" clip-path="url(#pd82664fe49)" style="fill: none; stroke: #e8ebe1; stroke-width: 0.6; stroke-linecap: square"/>
     </g>
     <g id="line2d_36">
      <g>
       <use xlink:href="#me0caf6a917" x="82.289928" y="350.968968" style="fill: #52685e; stroke: #52685e; stroke-width: 0.8"/>
      </g>
     </g>
     <g id="text_18">
      <text style="font-size: 9px; font-family: 'Noto Sans CJK JP'; text-anchor: end; fill: #52685e" x="75.289928" y="354.550687" transform="rotate(-0 75.289928 354.550687)">재무 조건 3개</text>
     </g>
    </g>
    <g id="ytick_18">
     <g id="line2d_37">
      <path d="M 82.289928 304.047747 
L 644.99976 304.047747 
" clip-path="url(#pd82664fe49)" style="fill: none; stroke: #e8ebe1; stroke-width: 0.6; stroke-linecap: square"/>
     </g>
     <g id="line2d_38">
      <g>
       <use xlink:href="#me0caf6a917" x="82.289928" y="304.047747" style="fill: #52685e; stroke: #52685e; stroke-width: 0.8"/>
      </g>
     </g>
     <g id="text_19">
      <text style="font-size: 9px; font-family: 'Noto Sans CJK JP'; text-anchor: end; fill: #52685e" x="75.289928" y="307.629466" transform="rotate(-0 75.289928 307.629466)">매출 성장 조건 제거</text>
     </g>
    </g>
   </g>
   <g id="LineCollection_1">
    <path d="M 158.400568 350.968968 
L 619.42204 350.968968 
" clip-path="url(#pd82664fe49)" style="fill: none; stroke: #245d53; stroke-width: 1.7"/>
   </g>
   <g id="line2d_39">
    <defs>
     <path id="m5cd7e8e5dc" d="M 0 2.5 
C 0.663008 2.5 1.29895 2.236584 1.767767 1.767767 
C 2.236584 1.29895 2.5 0.663008 2.5 0 
C 2.5 -0.663008 2.236584 -1.29895 1.767767 -1.767767 
C 1.29895 -2.236584 0.663008 -2.5 0 -2.5 
C -0.663008 -2.5 -1.29895 -2.236584 -1.767767 -1.767767 
C -2.236584 -1.29895 -2.5 -0.663008 -2.5 0 
C -2.5 0.663008 -2.236584 1.29895 -1.767767 1.767767 
C -1.29895 2.236584 -0.663008 2.5 0 2.5 
z
" style="stroke: #245d53"/>
    </defs>
    <g clip-path="url(#pd82664fe49)">
     <use xlink:href="#m5cd7e8e5dc" x="376.314452" y="350.968968" style="fill: #245d53; stroke: #245d53"/>
    </g>
   </g>
   <g id="LineCollection_2">
    <path d="M 158.400568 304.047747 
L 619.42204 304.047747 
" clip-path="url(#pd82664fe49)" style="fill: none; stroke: #af5b35; stroke-width: 1.7"/>
   </g>
   <g id="line2d_40">
    <defs>
     <path id="mfe4c746670" d="M 0 2.5 
C 0.663008 2.5 1.29895 2.236584 1.767767 1.767767 
C 2.236584 1.29895 2.5 0.663008 2.5 0 
C 2.5 -0.663008 2.236584 -1.29895 1.767767 -1.767767 
C 1.29895 -2.236584 0.663008 -2.5 0 -2.5 
C -0.663008 -2.5 -1.29895 -2.236584 -1.767767 -1.767767 
C -2.236584 -1.29895 -2.5 -0.663008 -2.5 0 
C -2.5 0.663008 -2.236584 1.29895 -1.767767 1.767767 
C -1.29895 2.236584 -0.663008 2.5 0 2.5 
z
" style="stroke: #af5b35"/>
    </defs>
    <g clip-path="url(#pd82664fe49)">
     <use xlink:href="#mfe4c746670" x="376.314452" y="304.047747" style="fill: #af5b35; stroke: #af5b35"/>
    </g>
   </g>
   <g id="line2d_41">
    <path d="M 107.867647 383.813822 
L 107.867647 271.202892 
" clip-path="url(#pd82664fe49)" style="fill: none; stroke-dasharray: 3.7,1.6; stroke-dashoffset: 0; stroke: #8f978a"/>
   </g>
   <g id="patch_6">
    <path d="M 82.289928 383.813823 
L 82.289928 271.202892 
" style="fill: none; stroke: #ccd3c6; stroke-width: 0.8; stroke-linejoin: miter; stroke-linecap: square"/>
   </g>
   <g id="patch_7">
    <path d="M 82.289928 383.813822 
L 644.99976 383.813822 
" style="fill: none; stroke: #ccd3c6; stroke-width: 0.8; stroke-linejoin: miter; stroke-linecap: square"/>
   </g>
  </g>
 </g>
 <defs>
  <clipPath id="pcd393561ea">
   <rect x="82.289928" y="23.755553" width="562.709832" height="225.22186"/>
  </clipPath>
  <clipPath id="pd82664fe49">
   <rect x="82.289928" y="271.202892" width="562.709832" height="112.61093"/>
  </clipPath>
 </defs>
</svg>
