<?xml version="1.0" encoding="utf-8" standalone="no"?>
<!DOCTYPE svg PUBLIC "-//W3C//DTD SVG 1.1//EN"
  "http://www.w3.org/Graphics/SVG/1.1/DTD/svg11.dtd">
<svg xmlns:xlink="http://www.w3.org/1999/xlink" width="648pt" height="417.6pt" viewBox="0 0 648 417.6" xmlns="http://www.w3.org/2000/svg" version="1.1">
 <metadata>
  <rdf:RDF xmlns:dc="http://purl.org/dc/elements/1.1/" xmlns:cc="http://creativecommons.org/ns#" xmlns:rdf="http://www.w3.org/1999/02/22-rdf-syntax-ns#">
   <cc:Work>
    <dc:type rdf:resource="http://purl.org/dc/dcmitype/StillImage"/>
    <dc:date>2026-09-30T15:04:52.595604</dc:date>
    <dc:format>image/svg+xml</dc:format>
    <dc:creator>
     <cc:Agent>
      <dc:title>Matplotlib v3.10.8, https://matplotlib.org/</dc:title>
     </cc:Agent>
    </dc:creator>
   </cc:Work>
  </rdf:RDF>
 </metadata>
 <defs>
  <style type="text/css">*{stroke-linejoin: round; stroke-linecap: butt}</style>
 </defs>
 <g id="figure_1">
  <g id="patch_1">
   <path d="M 0 417.6 
L 648 417.6 
L 648 0 
L 0 0 
z
" style="fill: #fffefa"/>
  </g>
  <g id="axes_1">
   <g id="patch_2">
    <path d="M 79.248209 248.977412 
L 644.99976 248.977412 
L 644.99976 23.755553 
L 79.248209 23.755553 
z
" style="fill: #fffefa"/>
   </g>
   <g id="matplotlib.axis_1">
    <g id="xtick_1">
     <g id="line2d_1">
      <defs>
       <path id="m20ee87a981" d="M 0 0 
L 0 3.5 
" style="stroke: #52685e; stroke-width: 0.8"/>
      </defs>
      <g>
       <use xlink:href="#m20ee87a981" x="104.964188" y="248.977412" style="fill: #52685e; stroke: #52685e; stroke-width: 0.8"/>
      </g>
     </g>
     <g id="text_1">
      <text style="font-size: 9px; font-family: 'Noto Sans CJK JP'; text-anchor: middle; fill: #52685e" x="104.964188" y="263.14085" transform="rotate(-0 104.964188 263.14085)">2024-08-27</text>
     </g>
    </g>
    <g id="xtick_2">
     <g id="line2d_2">
      <g>
       <use xlink:href="#m20ee87a981" x="362.123984" y="248.977412" style="fill: #52685e; stroke: #52685e; stroke-width: 0.8"/>
      </g>
     </g>
     <g id="text_2">
      <text style="font-size: 9px; font-family: 'Noto Sans CJK JP'; text-anchor: middle; fill: #52685e" x="362.123984" y="263.14085" transform="rotate(-0 362.123984 263.14085)">2025-08-29</text>
     </g>
    </g>
    <g id="xtick_3">
     <g id="line2d_3">
      <g>
       <use xlink:href="#m20ee87a981" x="619.28378" y="248.977412" style="fill: #52685e; stroke: #52685e; stroke-width: 0.8"/>
      </g>
     </g>
     <g id="text_3">
      <text style="font-size: 9px; font-family: 'Noto Sans CJK JP'; text-anchor: middle; fill: #52685e" x="619.28378" y="263.14085" transform="rotate(-0 619.28378 263.14085)">2026-09-01</text>
     </g>
    </g>
   </g>
   <g id="matplotlib.axis_2">
    <g id="ytick_1">
     <g id="line2d_4">
      <path d="M 79.248209 218.62332 
L 644.99976 218.62332 
" clip-path="url(#pc193372b08)" style="fill: none; stroke: #e8ebe1; stroke-width: 0.6; stroke-linecap: square"/>
     </g>
     <g id="line2d_5">
      <defs>
       <path id="m76b14db31e" d="M 0 0 
L -3.5 0 
" style="stroke: #52685e; stroke-width: 0.8"/>
      </defs>
      <g>
       <use xlink:href="#m76b14db31e" x="79.248209" y="218.62332" style="fill: #52685e; stroke: #52685e; stroke-width: 0.8"/>
      </g>
     </g>
     <g id="text_4">
      <text style="font-size: 9px; font-family: 'Noto Sans CJK JP'; text-anchor: end; fill: #52685e" x="72.248209" y="222.205039" transform="rotate(-0 72.248209 222.205039)">100</text>
     </g>
    </g>
    <g id="ytick_2">
     <g id="line2d_6">
      <path d="M 79.248209 57.111709 
L 644.99976 57.111709 
" clip-path="url(#pc193372b08)" style="fill: none; stroke: #e8ebe1; stroke-width: 0.6; stroke-linecap: square"/>
     </g>
     <g id="line2d_7">
      <g>
       <use xlink:href="#m76b14db31e" x="79.248209" y="57.111709" style="fill: #52685e; stroke: #52685e; stroke-width: 0.8"/>
      </g>
     </g>
     <g id="text_5">
      <text style="font-size: 9px; font-family: 'Noto Sans CJK JP'; text-anchor: end; fill: #52685e" x="72.248209" y="60.693428" transform="rotate(-0 72.248209 60.693428)">1000</text>
     </g>
    </g>
    <g id="ytick_3">
     <g id="line2d_8">
      <defs>
       <path id="md2062a8dd9" d="M 0 0 
L -2 0 
" style="stroke: #000000; stroke-width: 0.6"/>
      </defs>
      <g>
       <use xlink:href="#md2062a8dd9" x="79.248209" y="243.641785" style="stroke: #000000; stroke-width: 0.6"/>
      </g>
     </g>
    </g>
    <g id="ytick_4">
     <g id="line2d_9">
      <g>
       <use xlink:href="#md2062a8dd9" x="79.248209" y="234.275412" style="stroke: #000000; stroke-width: 0.6"/>
      </g>
     </g>
    </g>
    <g id="ytick_5">
     <g id="line2d_10">
      <g>
       <use xlink:href="#md2062a8dd9" x="79.248209" y="226.013686" style="stroke: #000000; stroke-width: 0.6"/>
      </g>
     </g>
    </g>
    <g id="ytick_6">
     <g id="line2d_11">
      <g>
       <use xlink:href="#md2062a8dd9" x="79.248209" y="170.003481" style="stroke: #000000; stroke-width: 0.6"/>
      </g>
     </g>
    </g>
    <g id="ytick_7">
     <g id="line2d_12">
      <g>
       <use xlink:href="#md2062a8dd9" x="79.248209" y="141.562698" style="stroke: #000000; stroke-width: 0.6"/>
      </g>
     </g>
    </g>
    <g id="ytick_8">
     <g id="line2d_13">
      <g>
       <use xlink:href="#md2062a8dd9" x="79.248209" y="121.383641" style="stroke: #000000; stroke-width: 0.6"/>
      </g>
     </g>
    </g>
    <g id="ytick_9">
     <g id="line2d_14">
      <g>
       <use xlink:href="#md2062a8dd9" x="79.248209" y="105.731549" style="stroke: #000000; stroke-width: 0.6"/>
      </g>
     </g>
    </g>
    <g id="ytick_10">
     <g id="line2d_15">
      <g>
       <use xlink:href="#md2062a8dd9" x="79.248209" y="92.942858" style="stroke: #000000; stroke-width: 0.6"/>
      </g>
     </g>
    </g>
    <g id="ytick_11">
     <g id="line2d_16">
      <g>
       <use xlink:href="#md2062a8dd9" x="79.248209" y="82.130174" style="stroke: #000000; stroke-width: 0.6"/>
      </g>
     </g>
    </g>
    <g id="ytick_12">
     <g id="line2d_17">
      <g>
       <use xlink:href="#md2062a8dd9" x="79.248209" y="72.763802" style="stroke: #000000; stroke-width: 0.6"/>
      </g>
     </g>
    </g>
    <g id="ytick_13">
     <g id="line2d_18">
      <g>
       <use xlink:href="#md2062a8dd9" x="79.248209" y="64.502075" style="stroke: #000000; stroke-width: 0.6"/>
      </g>
     </g>
    </g>
    <g id="text_6">
     <text style="font-size: 10px; font-family: 'Noto Sans CJK JP'; text-anchor: middle" x="45.977584" y="136.366482" transform="rotate(-90 45.977584 136.366482)">시작 100 · 로그 눈금</text>
    </g>
   </g>
   <g id="line2d_19">
    <path d="M 104.964188 218.62332 
L 126.394171 217.2869 
L 147.824154 214.58698 
L 169.254137 215.450987 
L 190.68412 212.550832 
L 212.114103 216.159613 
L 233.544086 217.13723 
L 254.974069 224.050009 
L 276.404052 226.292676 
L 297.834035 218.091949 
L 319.264018 210.234196 
L 340.694001 207.583377 
L 362.123984 202.52993 
L 383.553967 190.966487 
L 404.98395 180.350275 
L 426.413933 178.628285 
L 447.843916 174.248452 
L 469.273899 166.549326 
L 490.703882 170.651895 
L 512.133865 172.518973 
L 533.563848 156.923641 
L 554.993831 139.202243 
L 576.423814 143.419681 
L 597.853797 144.623536 
L 619.28378 142.092084 
" clip-path="url(#pc193372b08)" style="fill: none; stroke: #83917b; stroke-width: 1.8; stroke-linecap: square"/>
   </g>
   <g id="line2d_20">
    <path d="M 104.964188 218.62332 
L 126.394171 219.874461 
L 147.824154 214.535234 
L 169.254137 215.651762 
L 190.68412 219.675406 
L 212.114103 222.424652 
L 233.544086 226.657798 
L 254.974069 232.977065 
L 276.404052 238.740055 
L 297.834035 232.889641 
L 319.264018 219.683009 
L 340.694001 217.476031 
L 362.123984 215.07354 
L 383.553967 200.064559 
L 404.98395 184.841042 
L 426.413933 177.850952 
L 447.843916 170.568323 
L 469.273899 155.064794 
L 490.703882 161.93794 
L 512.133865 163.878768 
L 533.563848 146.292967 
L 554.993831 120.212939 
L 576.423814 127.908091 
L 597.853797 131.943015 
L 619.28378 125.32845 
" clip-path="url(#pc193372b08)" style="fill: none; stroke: #245d53; stroke-width: 1.8; stroke-linecap: square"/>
   </g>
   <g id="line2d_21">
    <path d="M 104.964188 218.62332 
L 126.394171 219.874461 
L 147.824154 214.535234 
L 169.254137 215.651762 
L 190.68412 219.675406 
L 212.114103 222.424652 
L 233.544086 226.657798 
L 254.974069 232.977065 
L 276.404052 236.923414 
L 297.834035 231.072999 
L 319.264018 217.866368 
L 340.694001 215.659389 
L 362.123984 213.256899 
L 383.553967 206.124343 
L 404.98395 199.802183 
L 426.413933 192.812093 
L 447.843916 194.222789 
L 469.273899 178.719259 
L 490.703882 185.592405 
L 512.133865 187.533234 
L 533.563848 169.044904 
L 554.993831 142.964876 
L 576.423814 146.120187 
L 597.853797 150.155111 
L 619.28378 143.540546 
" clip-path="url(#pc193372b08)" style="fill: none; stroke: #af5b35; stroke-width: 1.8; stroke-linecap: square"/>
   </g>
   <g id="line2d_22">
    <path d="M 104.964188 218.62332 
L 126.394171 214.516544 
L 147.824154 209.177317 
L 169.254137 208.416305 
L 190.68412 199.21481 
L 212.114103 199.520667 
L 233.544086 197.332446 
L 254.974069 202.887347 
L 276.404052 201.777955 
L 297.834035 187.024207 
L 319.264018 173.817575 
L 340.694001 165.50577 
L 362.123984 157.897917 
L 383.553967 140.891172 
L 404.98395 125.667655 
L 426.413933 118.677566 
L 447.843916 108.948988 
L 469.273899 93.445459 
L 490.703882 94.882739 
L 512.133865 96.42626 
L 533.563848 73.557334 
L 554.993831 43.072437 
L 576.423814 43.97647 
L 597.853797 40.607475 
L 619.28378 33.99291 
" clip-path="url(#pc193372b08)" style="fill: none; stroke-dasharray: 6.66,2.88; stroke-dashoffset: 0; stroke: #8d7caa; stroke-width: 1.8"/>
   </g>
   <g id="patch_3">
    <path d="M 79.248209 248.977412 
L 79.248209 23.755553 
" style="fill: none; stroke: #ccd3c6; stroke-width: 0.8; stroke-linejoin: miter; stroke-linecap: square"/>
   </g>
   <g id="patch_4">
    <path d="M 79.248209 248.977412 
L 644.99976 248.977412 
" style="fill: none; stroke: #ccd3c6; stroke-width: 0.8; stroke-linejoin: miter; stroke-linecap: square"/>
   </g>
   <g id="text_7">
    <text style="font-size: 11px; font-family: 'Noto Sans CJK JP'; text-anchor: start" x="79.248209" y="11.755553" transform="rotate(-0 79.248209 11.755553)">US · 4개 현재 기업 · 24개 21일 구간 · 비용 전 탐색 결과</text>
   </g>
   <g id="legend_1">
    <g id="line2d_23">
     <path d="M 87.348209 35.86899 
L 96.348209 35.86899 
L 105.348209 35.86899 
" style="fill: none; stroke: #83917b; stroke-width: 1.8; stroke-linecap: square"/>
    </g>
    <g id="text_8">
     <text style="font-size: 9px; font-family: 'Noto Sans CJK JP'; text-anchor: start" x="112.548209" y="39.01899" transform="rotate(-0 112.548209 39.01899)">동일가중 기준선</text>
    </g>
    <g id="line2d_24">
     <path d="M 87.348209 49.59399 
L 96.348209 49.59399 
L 105.348209 49.59399 
" style="fill: none; stroke: #245d53; stroke-width: 1.8; stroke-linecap: square"/>
    </g>
    <g id="text_9">
     <text style="font-size: 9px; font-family: 'Noto Sans CJK JP'; text-anchor: start" x="112.548209" y="52.74399" transform="rotate(-0 112.548209 52.74399)">63일 모멘텀</text>
    </g>
    <g id="line2d_25">
     <path d="M 190.524771 35.86899 
L 199.524771 35.86899 
L 208.524771 35.86899 
" style="fill: none; stroke: #af5b35; stroke-width: 1.8; stroke-linecap: square"/>
    </g>
    <g id="text_10">
     <text style="font-size: 9px; font-family: 'Noto Sans CJK JP'; text-anchor: start" x="215.724771" y="39.01899" transform="rotate(-0 215.724771 39.01899)">모멘텀 / 21일 위험</text>
    </g>
    <g id="line2d_26">
     <path d="M 190.524771 49.59399 
L 199.524771 49.59399 
L 208.524771 49.59399 
" style="fill: none; stroke-dasharray: 6.66,2.88; stroke-dashoffset: 0; stroke: #8d7caa; stroke-width: 1.8"/>
    </g>
    <g id="text_11">
     <text style="font-size: 9px; font-family: 'Noto Sans CJK JP'; text-anchor: start" x="215.724771" y="52.74399" transform="rotate(-0 215.724771 52.74399)">완전예지 상한</text>
    </g>
   </g>
  </g>
  <g id="axes_2">
   <g id="patch_5">
    <path d="M 79.248209 383.813822 
L 644.99976 383.813822 
L 644.99976 271.202892 
L 79.248209 271.202892 
z
" style="fill: #fffefa"/>
   </g>
   <g id="matplotlib.axis_3">
    <g id="xtick_4">
     <g id="line2d_27">
      <g>
       <use xlink:href="#m20ee87a981" x="116.083362" y="383.813822" style="fill: #52685e; stroke: #52685e; stroke-width: 0.8"/>
      </g>
     </g>
     <g id="text_12">
      <text style="font-size: 9px; font-family: 'Noto Sans CJK JP'; text-anchor: middle; fill: #52685e" x="116.083362" y="397.97726" transform="rotate(-0 116.083362 397.97726)">-2</text>
     </g>
    </g>
    <g id="xtick_5">
     <g id="line2d_28">
      <g>
       <use xlink:href="#m20ee87a981" x="199.44628" y="383.813822" style="fill: #52685e; stroke: #52685e; stroke-width: 0.8"/>
      </g>
     </g>
     <g id="text_13">
      <text style="font-size: 9px; font-family: 'Noto Sans CJK JP'; text-anchor: middle; fill: #52685e" x="199.44628" y="397.97726" transform="rotate(-0 199.44628 397.97726)">-1</text>
     </g>
    </g>
    <g id="xtick_6">
     <g id="line2d_29">
      <g>
       <use xlink:href="#m20ee87a981" x="282.809199" y="383.813822" style="fill: #52685e; stroke: #52685e; stroke-width: 0.8"/>
      </g>
     </g>
     <g id="text_14">
      <text style="font-size: 9px; font-family: 'Noto Sans CJK JP'; text-anchor: middle; fill: #52685e" x="282.809199" y="397.97726" transform="rotate(-0 282.809199 397.97726)">0</text>
     </g>
    </g>
    <g id="xtick_7">
     <g id="line2d_30">
      <g>
       <use xlink:href="#m20ee87a981" x="366.172117" y="383.813822" style="fill: #52685e; stroke: #52685e; stroke-width: 0.8"/>
      </g>
     </g>
     <g id="text_15">
      <text style="font-size: 9px; font-family: 'Noto Sans CJK JP'; text-anchor: middle; fill: #52685e" x="366.172117" y="397.97726" transform="rotate(-0 366.172117 397.97726)">1</text>
     </g>
    </g>
    <g id="xtick_8">
     <g id="line2d_31">
      <g>
       <use xlink:href="#m20ee87a981" x="449.535035" y="383.813822" style="fill: #52685e; stroke: #52685e; stroke-width: 0.8"/>
      </g>
     </g>
     <g id="text_16">
      <text style="font-size: 9px; font-family: 'Noto Sans CJK JP'; text-anchor: middle; fill: #52685e" x="449.535035" y="397.97726" transform="rotate(-0 449.535035 397.97726)">2</text>
     </g>
    </g>
    <g id="xtick_9">
     <g id="line2d_32">
      <g>
       <use xlink:href="#m20ee87a981" x="532.897953" y="383.813822" style="fill: #52685e; stroke: #52685e; stroke-width: 0.8"/>
      </g>
     </g>
     <g id="text_17">
      <text style="font-size: 9px; font-family: 'Noto Sans CJK JP'; text-anchor: middle; fill: #52685e" x="532.897953" y="397.97726" transform="rotate(-0 532.897953 397.97726)">3</text>
     </g>
    </g>
    <g id="xtick_10">
     <g id="line2d_33">
      <g>
       <use xlink:href="#m20ee87a981" x="616.260872" y="383.813822" style="fill: #52685e; stroke: #52685e; stroke-width: 0.8"/>
      </g>
     </g>
     <g id="text_18">
      <text style="font-size: 9px; font-family: 'Noto Sans CJK JP'; text-anchor: middle; fill: #52685e" x="616.260872" y="397.97726" transform="rotate(-0 616.260872 397.97726)">4</text>
     </g>
    </g>
    <g id="text_19">
     <text style="font-size: 10px; font-family: 'Noto Sans CJK JP'; text-anchor: middle" x="362.123984" y="412.309135" transform="rotate(-0 362.123984 412.309135)">21일 평균 기준선 차이 (%p) · 탐색용 95% 블록 부트스트랩 구간</text>
    </g>
   </g>
   <g id="matplotlib.axis_4">
    <g id="ytick_14">
     <g id="line2d_34">
      <path d="M 79.248209 350.968968 
L 644.99976 350.968968 
" clip-path="url(#pfc8f47c778)" style="fill: none; stroke: #e8ebe1; stroke-width: 0.6; stroke-linecap: square"/>
     </g>
     <g id="line2d_35">
      <g>
       <use xlink:href="#m76b14db31e" x="79.248209" y="350.968968" style="fill: #52685e; stroke: #52685e; stroke-width: 0.8"/>
      </g>
     </g>
     <g id="text_20">
      <text style="font-size: 9px; font-family: 'Noto Sans CJK JP'; text-anchor: end; fill: #52685e" x="72.248209" y="354.550687" transform="rotate(-0 72.248209 354.550687)">63일 모멘텀</text>
     </g>
    </g>
    <g id="ytick_15">
     <g id="line2d_36">
      <path d="M 79.248209 304.047747 
L 644.99976 304.047747 
" clip-path="url(#pfc8f47c778)" style="fill: none; stroke: #e8ebe1; stroke-width: 0.6; stroke-linecap: square"/>
     </g>
     <g id="line2d_37">
      <g>
       <use xlink:href="#m76b14db31e" x="79.248209" y="304.047747" style="fill: #52685e; stroke: #52685e; stroke-width: 0.8"/>
      </g>
     </g>
     <g id="text_21">
      <text style="font-size: 9px; font-family: 'Noto Sans CJK JP'; text-anchor: end; fill: #52685e" x="72.248209" y="307.629466" transform="rotate(-0 72.248209 307.629466)">모멘텀 / 21일 위험</text>
     </g>
    </g>
   </g>
   <g id="LineCollection_1">
    <path d="M 213.759328 350.968968 
L 619.28378 350.968968 
" clip-path="url(#pfc8f47c778)" style="fill: none; stroke: #245d53; stroke-width: 1.7"/>
   </g>
   <g id="line2d_38">
    <defs>
     <path id="m7322de8dad" d="M 0 2.5 
C 0.663008 2.5 1.29895 2.236584 1.767767 1.767767 
C 2.236584 1.29895 2.5 0.663008 2.5 0 
C 2.5 -0.663008 2.236584 -1.29895 1.767767 -1.767767 
C 1.29895 -2.236584 0.663008 -2.5 0 -2.5 
C -0.663008 -2.5 -1.29895 -2.236584 -1.767767 -1.767767 
C -2.236584 -1.29895 -2.5 -0.663008 -2.5 0 
C -2.5 0.663008 -2.236584 1.29895 -1.767767 1.767767 
C -1.29895 2.236584 -0.663008 2.5 0 2.5 
z
" style="stroke: #245d53"/>
    </defs>
    <g clip-path="url(#pfc8f47c778)">
     <use xlink:href="#m7322de8dad" x="410.468708" y="350.968968" style="fill: #245d53; stroke: #245d53"/>
    </g>
   </g>
   <g id="LineCollection_2">
    <path d="M 104.964188 304.047747 
L 489.059274 304.047747 
" clip-path="url(#pfc8f47c778)" style="fill: none; stroke: #af5b35; stroke-width: 1.7"/>
   </g>
   <g id="line2d_39">
    <defs>
     <path id="m4bcad53933" d="M 0 2.5 
C 0.663008 2.5 1.29895 2.236584 1.767767 1.767767 
C 2.236584 1.29895 2.5 0.663008 2.5 0 
C 2.5 -0.663008 2.236584 -1.29895 1.767767 -1.767767 
C 1.29895 -2.236584 0.663008 -2.5 0 -2.5 
C -0.663008 -2.5 -1.29895 -2.236584 -1.767767 -1.767767 
C -2.236584 -1.29895 -2.5 -0.663008 -2.5 0 
C -2.5 0.663008 -2.236584 1.29895 -1.767767 1.767767 
C -1.29895 2.236584 -0.663008 2.5 0 2.5 
z
" style="stroke: #af5b35"/>
    </defs>
    <g clip-path="url(#pfc8f47c778)">
     <use xlink:href="#m4bcad53933" x="303.410609" y="304.047747" style="fill: #af5b35; stroke: #af5b35"/>
    </g>
   </g>
   <g id="line2d_40">
    <path d="M 282.809199 383.813822 
L 282.809199 271.202892 
" clip-path="url(#pfc8f47c778)" style="fill: none; stroke-dasharray: 3.7,1.6; stroke-dashoffset: 0; stroke: #8f978a"/>
   </g>
   <g id="patch_6">
    <path d="M 79.248209 383.813823 
L 79.248209 271.202892 
" style="fill: none; stroke: #ccd3c6; stroke-width: 0.8; stroke-linejoin: miter; stroke-linecap: square"/>
   </g>
   <g id="patch_7">
    <path d="M 79.248209 383.813822 
L 644.99976 383.813822 
" style="fill: none; stroke: #ccd3c6; stroke-width: 0.8; stroke-linejoin: miter; stroke-linecap: square"/>
   </g>
  </g>
 </g>
 <defs>
  <clipPath id="pc193372b08">
   <rect x="79.248209" y="23.755553" width="565.751551" height="225.22186"/>
  </clipPath>
  <clipPath id="pfc8f47c778">
   <rect x="79.248209" y="271.202892" width="565.751551" height="112.61093"/>
  </clipPath>
 </defs>
</svg>
